<svg xmlns="http://www.w3.org/2000/svg" viewBox="0 0 560.86 228.67"><g data-name="Capa 2"><g data-name="Capa 1"><path d="M35.17 4.28C39.39-3.5 49.54 2 49.54 2v30.5l-14.37-4Z" data-area="264.25" data-available="1" data-number="99"/><path d="M63.92 36.19 49.55 32.5V2.04L63.92 5.6v30.59z" data-area="275" data-available="1" data-number="98"/><path d="m78.29 40.15-14.37-3.96V5.6l14.37 3.82v30.73z" data-area="275" data-available="1" data-number="97"/><path d="M92.67 12.85v31.12l-14.38-3.82V9.42l14.38 3.43z" data-area="275" data-available="1" data-number="96"/><path d="m107.17 17.46-14.5-4.61v31.12l14.5 3.69v-30.2z" data-area="275" data-available="1" data-number="95"/><path d="m121.81 21.02-14.64-3.56v30.2l14.64 3.69V21.02z" data-area="275" data-available="1" data-number="94"/><path d="m135.65 54.65-13.84-3.3V21.02l13.84 3.17v30.46z" data-area="275" data-available="1" data-number="93"/><path d="m149.76 58.74-14.11-4.09V24.19l14.11 3.96v30.59z" data-area="275" data-available="1" data-number="92"/><path d="m164.14 62.43-14.38-3.69V28.15l14.38 3.82v30.46z" data-area="275" data-available="2" data-number="91"/><path d="m178.64 65.86-14.5-3.43V31.97l14.5 3.69v30.2z" data-area="275" data-available="2" data-number="90"/><path d="m193.02 69.82-14.38-3.96v-30.2l14.38 3.69v30.47z" data-area="275" data-available="2" data-number="89"/><path d="m207.52 73.77-14.5-3.95V39.35l14.5 3.83v30.59z" data-area="275" data-available="2" data-number="88"/><path d="m221.76 77.33-14.24-3.56V43.18l14.9 4.48-.66 29.67z" data-area="275" data-available="2" data-number="87"/><path d="m235.87 81.03-14.11-3.7.66-29.67 14.51 3.17-1.06 30.2z" data-area="275" data-available="2" data-number="86"/><path d="m250.25 84.98-14.38-3.95 1.06-30.2 14.24 3.82-.92 30.33z" data-area="275" data-available="2" data-number="85"/><path d="m264.49 88.81-14.24-3.83.92-30.33 13.98 3.43-.66 30.73z" data-area="275" data-available="2" data-number="84"/><path d="m265.15 120.19-.66-31.38-14.24-3.83v30.99l14.9 4.22z" data-area="275" data-available="2" data-number="83"/><path d="M235.87 111.62V81.03l14.38 3.95v30.99l-14.38-4.35z" data-area="275" data-available="2" data-number="82"/><path d="M221.76 107.79V77.33l14.11 3.7v30.59l-14.11-3.83z" data-area="275" data-available="2" data-number="81"/><path d="M207.52 73.77v30.46l14.24 3.56V77.33l-14.24-3.56z" data-area="275" data-available="2" data-number="80"/><path d="M193.02 100.28V69.82l14.5 3.95v30.46l-14.5-3.95z" data-area="275" data-available="2" data-number="79"/><path d="M178.64 96.58V65.86l14.38 3.96v30.46l-14.38-3.7z" data-area="275" data-available="2" data-number="78"/><path d="M164.14 62.43v30.6l14.5 3.55V65.86l-14.5-3.43z" data-area="275" data-available="2" data-number="77"/><path d="M149.76 58.74v30.07l14.38 4.22v-30.6l-14.38-3.69z" data-area="275" data-available="2" data-number="76"/><path d="M135.65 54.65V85.9l14.11 2.91V58.74l-14.11-4.09z" data-area="275" data-available="1" data-number="75"/><path d="M121.81 51.35v30.33l13.84 4.22V54.65l-13.84-3.3z" data-area="275" data-available="1" data-number="74"/><path d="M107.17 47.66v30.73l14.64 3.29V51.35l-14.64-3.69z" data-area="275" data-available="1" data-number="73"/><path d="M92.67 43.97v30.59l14.5 3.83V47.66l-14.5-3.69z" data-area="275" data-available="1" data-number="72"/><path d="M78.29 40.15v29.67l14.38 4.74V43.97l-14.38-3.82z" data-area="275" data-available="1" data-number="71"/><path d="M63.92 36.19v29.67l14.37 3.96V40.15l-14.37-3.96z" data-area="275" data-available="1" data-number="70"/><path d="M49.55 32.5v29.93l14.37 3.43V36.19L49.55 32.5z" data-area="275" data-available="1" data-number="69"/><path d="M35.17 28.54V56a5.57 5.57 0 0 0 4.09 4.29l10.28 2.17V32.5Z" data-area="271.97" data-available="3" data-number="68"/><path d="M.16 64.67 5.9 93.03l13.45 4.35V68.63L.16 64.67z" data-area="284.51" data-available="3" data-number="67"/><path d="m35.17 73.77-15.82-5.14v28.75l15.82 4.35V73.77z" data-area="273.9" data-available="2" data-number="66"/><path d="m49.55 77.33-14.38-3.56v27.96l14.38 3.76V77.33z" data-area="253.16" data-available="1" data-number="65"/><path d="m63.92 81.03-14.37-3.7v28.16l14.37 3.95V81.03z" data-area="255.15" data-available="1" data-number="64"/><path d="m78.29 85.18-14.37-4.15v28.41l14.37 3.96V85.18z" data-area="257.14" data-available="1" data-number="63"/><path d="m92.67 88.81-14.38-3.63v28.22l14.38 3.76V88.81z" data-area="259.13" data-available="1" data-number="62"/><path d="m107.17 92.23-14.5-3.42v28.35l14.5 4.35V92.23z" data-area="261.12" data-available="1" data-number="61"/><path d="m121.02 96.58-13.85-4.35v29.28l14.64 3.39-.79-28.32z" data-area="263.11" data-available="1" data-number="60"/><path d="m135.65 129.42-13.84-4.52-.79-28.32 14.63 2.97v29.87z" data-area="265.1" data-available="1" data-number="59"/><path d="m149.76 132.59-14.11-3.17V99.55l14.84 3.03-.73 30.01z" data-area="267.09" data-available="1" data-number="58"/><path d="m164.14 137.13-14.38-4.54.73-30.01 14.44 4.09-.79 30.46z" data-area="269.08" data-available="1" data-number="57"/><path d="m178.64 141.29-14.5-4.16.79-30.46 13.71 4.16v30.46z" data-area="271.01" data-available="1" data-number="56"/><path d="m193.02 144.26-14.38-2.97v-30.46l15.17 3.36-.79 30.07z" data-area="273.06" data-available="1" data-number="55"/><path d="m207.52 148.61-14.5-4.35.79-30.07 13.71 3.96v30.46z" data-area="275.05" data-available="2" data-number="54"/><path d="m221.76 151.97-14.24-3.36v-30.46l14.24 3.36v30.46z" data-area="277.04" data-available="1" data-number="53"/><path d="m235.87 156.12-14.11-4.15v-30.46l14.11 4.55v30.06z" data-area="279.04" data-available="1" data-number="52"/><path d="m250.25 160.28-14.38-4.16v-30.06l15.3 3.36-.92 30.86z" data-area="281.03" data-available="1" data-number="51"/><path d="m265.15 164.23-14.9-3.95.92-30.86 13.98 3.96v30.85z" data-area="283.02" data-available="1" data-number="50"/><path d="m280.25 168.19-15.1-3.96v-30.85l15.1 3.75v31.06z" data-area="311.02" data-available="3" data-number="49"/><path d="m296.47 172.54-16.22-4.35v-31.06l11.87 3.17s4.35 1 4.35 4.94Z" data-area="312.57" data-available="3" data-number="48"/><path d="M310.71 57.42V86.3s-.4 3.23 5.14 4.48l10.29 3.7V62.17Z" data-area="315.98" data-available="3" data-number="17"/><path d="m341.57 65.93-15.43-3.76v32.3l15.43 4.03V65.93z" data-area="319.68" data-available="3" data-number="16"/><path d="m356.6 69.68-15.03-3.75V98.5l15.03 4.08v-32.9z" data-area="300.23" data-available="1" data-number="15"/><path d="m371.24 73.77-14.64-4.09v32.9l14.64 3.89v-32.7z" data-area="302.04" data-available="1" data-number="14"/><path d="m385.87 77.33-14.63-3.56v32.7l14.63 4.36v-33.5z" data-area="303.8" data-available="1" data-number="13"/><path d="m400.51 81.03-14.64-3.7v33.5l14.64 3.75V81.03z" data-area="305.57" data-available="1" data-number="12"/><path d="m415.15 84.98-14.64-3.95v33.55l14.64 3.57V84.98z" data-area="307.33" data-available="1" data-number="11"/><path d="m429.79 88.81-14.64-3.83v33.17l14.64 4.54V88.81z" data-area="309.09" data-available="1" data-number="10"/><path d="m444.23 92.3-14.44-3.49v33.88l14.44 4.56V92.3z" data-area="310.86" data-available="1" data-number="9"/><path d="m459.06 95.96-14.83-3.66v34.95l14.83 3.75V95.96z" data-area="312.62" data-available="1" data-number="8"/><path d="m473.7 99.58-14.64-3.62V131l14.64 3.96V99.58z" data-area="314.39" data-available="1" data-number="7"/><path d="m487.94 103.84-14.24-4.26v35.38l14.24 3.76v-34.88z" data-area="316.15" data-available="1" data-number="6"/><path d="m502.18 108.03-14.24-4.19v34.88l14.24 4.15v-34.84z" data-area="317.92" data-available="1" data-number="5"/><path d="m517.02 111.65-14.84-3.62v34.84l14.84 3.96v-35.18z" data-area="319.68" data-available="3" data-number="4"/><path d="m531.65 115.46-14.63-3.81v35.18l14.63 3.95v-35.32z" data-area="321.44" data-available="3" data-number="3"/><path d="m546.69 119.15-15.04-3.69v35.32l15.04 4.06v-35.69z" data-area="323.21" data-available="3" data-number="2"/><path d="m560.73 123.35-14.04-4.2v35.69l14.04 3.26v-34.75z" data-area="325.05" data-available="3" data-number="1"/><path d="m341.57 112.41.79 30.46 14.24 3.96v-31.37l-15.03-4.83v1.78z" data-area="279.87" data-available="1" data-number="18"/><path d="m371.24 150.78-14.64-3.95v-31.37l14.64 4.73v30.59z" data-area="280.02" data-available="1" data-number="19"/><path d="m385.87 154.84-14.63-4.06v-30.59l14.63 4.71v29.94z" data-area="279.92" data-available="1" data-number="20"/><path d="m400.51 159.09-14.64-4.25V124.9l14.64 3.83v30.36z" data-area="279.94" data-available="1" data-number="21"/><path d="m415.15 162.85-14.64-3.76v-30.36l14.64 4.39v29.73z" data-area="280.08" data-available="1" data-number="22"/><path d="m429.79 166.81-14.64-3.96v-29.73l14.64 3.22v30.47z" data-area="280.11" data-available="1" data-number="23"/><path d="m444.23 171.35-14.44-4.54v-30.47l14.44 4.35v30.66z" data-area="280.2" data-available="1" data-number="24"/><path d="m459.06 174.91-14.83-3.56v-30.66l14.83 3.76v30.46z" data-area="280.13" data-available="1" data-number="25"/><path d="m473.7 178.87-14.64-3.96v-30.46l14.64 3.76v30.66z" data-area="280.14" data-available="1" data-number="26"/><path d="m487.94 182.83-14.24-3.96v-30.66l14.24 3.96v30.66z" data-area="280.2" data-available="1" data-number="27"/><path d="m502.18 186.78-14.24-3.95v-30.66l14.24 3.56v31.05z" data-area="280.12" data-available="1" data-number="28"/><path d="m517.02 190.74-14.84-3.96v-31.05l14.84 4.55v30.46z" data-area="280.17" data-available="1" data-number="29"/><path d="m531.65 194.5-14.63-3.76v-30.46l14.63 4.15v30.07z" data-area="280.17" data-available="1" data-number="30"/><path d="m546.69 198.65-15.04-4.15v-30.07l15.04 3.76v30.46z" data-area="280.2" data-available="1" data-number="31"/><path d="m560.73 202.41-14.04-3.76v-30.46l14.04 4.15v30.07z" data-area="279.66" data-available="1" data-number="32"/><path d="m341.57 173.23 15.03 4.16v-30.56l-14.24-3.96-.79 30.36z" data-area="279.93" data-available="1" data-number="47"/><path d="m371.24 181.54-14.64-4.15v-30.56l14.64 3.95v30.76z" data-area="280.08" data-available="1" data-number="46"/><path d="m385.87 185.3-14.63-3.76v-30.76l14.63 4.06v30.46z" data-area="280.3" data-available="1" data-number="45"/><path d="m400.51 189.35-14.64-4.05v-30.46l14.64 4.25v30.26z" data-area="280.2" data-available="1" data-number="44"/><path d="m415.15 193.11-14.64-3.76v-30.26l14.64 3.76v30.26z" data-area="280.33" data-available="1" data-number="43"/><path d="m429.79 197.46-14.64-4.35v-30.26l14.64 3.96v30.65z" data-area="280.32" data-available="1" data-number="42"/><path d="m444.23 201.03-14.44-3.57v-30.65l14.44 4.54v29.68z" data-area="280.29" data-available="1" data-number="41"/><path d="m459.06 205.18-14.83-4.15v-29.68l14.83 3.56v30.27z" data-area="280.26" data-available="1" data-number="40"/><path d="m473.7 209.33-14.64-4.15v-30.27l14.64 3.96v30.46z" data-area="280.27" data-available="1" data-number="39"/><path d="m487.94 212.89-14.24-3.56v-30.46l14.24 3.96v30.06z" data-area="280.25" data-available="1" data-number="38"/><path d="m502.18 217.44-14.24-4.55v-30.06l14.24 3.95v30.66z" data-area="280.24" data-available="1" data-number="37"/><path d="m517.02 221.79-14.84-4.35v-30.66l14.84 3.96v31.05z" data-area="280.26" data-available="1" data-number="36"/><path d="m531.65 225.55-14.63-3.76v-31.05l14.63 3.76v31.05z" data-area="280.23" data-available="1" data-number="35"/><path d="m546.69 228.52-15.04-2.97V194.5l15.04 4.15v29.87z" data-area="278.27" data-available="1" data-number="34"/><path d="M560.73 225.55v-23.14l-14-3.76v29.87s12.62.2 14-2.97Z" data-area="242.64" data-available="1" data-number="33"/></g></g></svg>