<svg xmlns="http://www.w3.org/2000/svg" viewBox="0 0 939.02 574.92"><defs><style>.cls-1{fill:#fff;}</style></defs><g id="Capa_2" data-name="Capa 2"><g id="Capa_1-2" data-name="Capa 1"><path class="cls-1" d="M511,106.71h0c-1-.26-2-.49-3-.71h0A60.82,60.82,0,0,0,468.15,0V0h-121V18.09H348a28.15,28.15,0,0,1,27.77,28.25v161.6c0,13.75-9.5,25.93-23,28.58a26.51,26.51,0,0,1-5.14.52h-.49v19.44H490.77c41.56,0,76.24-32.89,77.15-74.43A76.09,76.09,0,0,0,511,106.71M450.56,9.86c18.38,0,29.94-.55,40.15,7.05a35.39,35.39,0,0,1,5.92,5.75,59.79,59.79,0,0,1-3,79.75c-24.64-8-61.86-25-72.33-71.61A17.21,17.21,0,0,1,438.16,9.86ZM416.69,77.93a4.6,4.6,0,0,1,8.61-2.25c8.49,15.25,21.29,27.5,32.88,36.4h0l.63.48.24.18h0c11.72,9.46,32,19.63,33.26,20.21a52,52,0,0,1,17.12,12.77,52.82,52.82,0,0,1-39.88,87.51c-28.17,0-52.79-20.23-52.79-50.14,0-.91-.07-105.16-.07-105.16"/><path class="cls-1" d="M604.21,197.35a29.32,29.32,0,1,0,29.31,29.32,29.33,29.33,0,0,0-29.31-29.32"/><path class="cls-1" d="M78.4,412.68a36.74,36.74,0,0,0-14.61-11.62c-1.44-.62-3.12-1.25-5-1.87l.7-.46A27.19,27.19,0,0,0,68,389.19a27.51,27.51,0,0,0,3.47-13.65A28,28,0,0,0,68.93,364a30.47,30.47,0,0,0-7.18-9.88c-6.67-6.3-15.73-9.49-26.94-9.49H.18L0,464.77H44.34a46.7,46.7,0,0,0,15.85-2.69,41,41,0,0,0,13.1-7.52,34.05,34.05,0,0,0,8.28-11.09,30.21,30.21,0,0,0,2.89-12.78,29.05,29.05,0,0,0-6.06-18M9.53,406H38.29c8.8,0,16.18,1.28,22,3.8a27.21,27.21,0,0,1,10.5,8.36,20.06,20.06,0,0,1,4.37,12.57,21.19,21.19,0,0,1-3.75,11.88,28,28,0,0,1-10.79,9.25,35.24,35.24,0,0,1-16.23,3.61H9.53Zm39.55-11.87a33.37,33.37,0,0,1-6.48,1.8,51.29,51.29,0,0,1-8.16.54H9.53V354.11H34.81a33.34,33.34,0,0,1,14.87,3.07A22.47,22.47,0,0,1,59,365.13a19.16,19.16,0,0,1,3.12,10.41,17.37,17.37,0,0,1-4.17,11.74,25,25,0,0,1-8.86,6.81"/><path class="cls-1" d="M213.71,351.53a60.65,60.65,0,0,0-61,0,61.64,61.64,0,0,0,0,106.3,60.71,60.71,0,0,0,61,0,61.64,61.64,0,0,0,0-106.3m-30.51,105a49.78,49.78,0,0,1-25.73-7,52.5,52.5,0,0,1-18.77-18.85,52,52,0,0,1,0-52,52.6,52.6,0,0,1,18.77-18.86,50.93,50.93,0,0,1,51.47,0,52.09,52.09,0,0,1,18.67,18.86,52.54,52.54,0,0,1,0,52,52,52,0,0,1-18.67,18.85,49.84,49.84,0,0,1-25.74,7"/><path class="cls-1" d="M338.16,411.91a38.2,38.2,0,0,0,11.23-3.24A35.67,35.67,0,0,0,363.91,397,30,30,0,0,0,367.18,366a34.68,34.68,0,0,0-8.28-11,39.86,39.86,0,0,0-13-7.71A46.83,46.83,0,0,0,330,344.58H287.8V464.77h9.35V353.93H330a35.24,35.24,0,0,1,16.23,3.6A28.2,28.2,0,0,1,357,366.78a21.19,21.19,0,0,1,3.75,11.88,20.55,20.55,0,0,1-4.46,12.76,28.81,28.81,0,0,1-10.59,8.71c-5.52,2.29-12.85,3.45-21.77,3.45H308.07l50.22,61,.15.2h12.43l-43.06-52.22a96.16,96.16,0,0,0,10.35-.64"/><polygon class="cls-1" points="419.35 464.77 497.58 464.77 497.58 455.05 428.7 455.05 428.7 409.44 482.37 409.44 482.37 399.92 428.7 399.92 428.7 354.12 497.58 354.12 497.58 344.59 419.35 344.59 419.35 464.77"/><path class="cls-1" d="M540.13,464.77H550.5l14.11-30.23h62.68l13.38,30.23h10.18L597.07,342.33Zm56.55-99.43,26.46,59.85H569Z"/><polygon class="cls-1" points="776.22 440.72 693.78 342.15 693.78 464.77 703.13 464.77 703.13 369.01 785.57 467.76 785.57 344.58 776.22 344.58 776.22 440.72"/><path class="cls-1" d="M885.24,342.33,828.31,464.77h10.37l14.11-30.23h62.68l13.37,30.23H939Zm-.39,23,26.47,59.85H857.15Z"/><path class="cls-1" d="M220.72,573.49a1,1,0,0,1-.09.44.72.72,0,0,1-.35.31,2.44,2.44,0,0,1-.71.2,7.34,7.34,0,0,1-1.16.08,7.57,7.57,0,0,1-1-.06,2.1,2.1,0,0,1-.72-.22,1.32,1.32,0,0,1-.47-.44,2.47,2.47,0,0,1-.33-.71l-4.43-11.51c-.52-1.29-1.07-2.51-1.66-3.66a11.93,11.93,0,0,0-2.12-3,9.09,9.09,0,0,0-3-2,11,11,0,0,0-4.22-.74h-4.91v21.36a.81.81,0,0,1-.11.41.72.72,0,0,1-.36.29,3.44,3.44,0,0,1-.68.18,6.28,6.28,0,0,1-1.08.08,6.49,6.49,0,0,1-1.07-.08,3.38,3.38,0,0,1-.69-.18.74.74,0,0,1-.37-.29.81.81,0,0,1-.11-.41V529.19a2.09,2.09,0,0,1,.7-1.81,2.34,2.34,0,0,1,1.35-.49H202q1.75,0,2.91.09c.77.06,1.47.14,2.11.24a15.68,15.68,0,0,1,4.72,1.54,11,11,0,0,1,3.34,2.61,10.51,10.51,0,0,1,2,3.52,13.78,13.78,0,0,1,.64,4.23,12.47,12.47,0,0,1-.66,4.2,10.21,10.21,0,0,1-1.87,3.26,12.07,12.07,0,0,1-2.89,2.44,19.94,19.94,0,0,1-3.7,1.72,9.92,9.92,0,0,1,2.17,1.35,10.58,10.58,0,0,1,1.8,1.95,17.78,17.78,0,0,1,1.56,2.62c.49,1,1,2.09,1.46,3.31L220,571c.31.85.52,1.44.6,1.75A2.84,2.84,0,0,1,220.72,573.49Zm-7.88-33.89a9.36,9.36,0,0,0-1.35-5.15,7.66,7.66,0,0,0-4.55-3,13.07,13.07,0,0,0-2.3-.42,31.9,31.9,0,0,0-3.26-.13h-5.87v17.4h6.82a14.67,14.67,0,0,0,4.72-.67,9.3,9.3,0,0,0,3.28-1.86,7,7,0,0,0,1.91-2.74A9.51,9.51,0,0,0,212.84,539.6Z"/><path class="cls-1" d="M275.17,572.32a4.13,4.13,0,0,1-.08.84,1.82,1.82,0,0,1-.24.62,1,1,0,0,1-.86.52h-22.2a2.33,2.33,0,0,1-1.35-.5,2.06,2.06,0,0,1-.7-1.81v-42.8a2.06,2.06,0,0,1,.7-1.81,2.31,2.31,0,0,1,1.35-.49h21.87a1,1,0,0,1,.48.12,1.07,1.07,0,0,1,.37.39,2,2,0,0,1,.21.64,4,4,0,0,1,.08.9,3.58,3.58,0,0,1-.08.84,1.81,1.81,0,0,1-.21.61,1.06,1.06,0,0,1-.37.36.91.91,0,0,1-.48.13H254.21v16.67H271a.94.94,0,0,1,.51.13,1.06,1.06,0,0,1,.37.36,1.93,1.93,0,0,1,.22.63,4.7,4.7,0,0,1,.07.9,4,4,0,0,1-.07.82,1.66,1.66,0,0,1-.22.57,1,1,0,0,1-.37.33,1.16,1.16,0,0,1-.51.11H254.21v18.9H274a1,1,0,0,1,.48.13,1.12,1.12,0,0,1,.38.37,1.61,1.61,0,0,1,.24.62A4.78,4.78,0,0,1,275.17,572.32Z"/><path class="cls-1" d="M328.44,561.47a13.45,13.45,0,0,1-1.14,5.65,12,12,0,0,1-3.19,4.23,14.22,14.22,0,0,1-4.87,2.65,19.89,19.89,0,0,1-6.16.92,20.92,20.92,0,0,1-4.28-.42,24.74,24.74,0,0,1-3.59-1,19.58,19.58,0,0,1-2.66-1.19,6.11,6.11,0,0,1-1.48-1,2.53,2.53,0,0,1-.59-1,4.81,4.81,0,0,1-.18-1.42,5.81,5.81,0,0,1,.07-1,2.73,2.73,0,0,1,.2-.66.75.75,0,0,1,.33-.35,1,1,0,0,1,.42-.09,2.92,2.92,0,0,1,1.45.64,20.84,20.84,0,0,0,2.42,1.39,22.3,22.3,0,0,0,3.55,1.39,16.25,16.25,0,0,0,4.82.65,13,13,0,0,0,4.1-.61,9.47,9.47,0,0,0,3.23-1.74,7.72,7.72,0,0,0,2.1-2.8,9,9,0,0,0,.75-3.79,7.12,7.12,0,0,0-.95-3.78,9.79,9.79,0,0,0-2.51-2.76,20.5,20.5,0,0,0-3.53-2.17c-1.32-.64-2.67-1.29-4.05-1.94s-2.73-1.35-4.05-2.11a17.41,17.41,0,0,1-3.54-2.65,12.16,12.16,0,0,1-2.51-3.57,11.61,11.61,0,0,1-1-4.88,11.75,11.75,0,0,1,1-4.92,10.33,10.33,0,0,1,2.79-3.7,12.36,12.36,0,0,1,4.3-2.33,17.85,17.85,0,0,1,5.51-.81,15.92,15.92,0,0,1,3.05.3,21.35,21.35,0,0,1,2.91.75,16,16,0,0,1,2.45,1,6.64,6.64,0,0,1,1.43.92,2.86,2.86,0,0,1,.44.51,2.14,2.14,0,0,1,.17.42,4.21,4.21,0,0,1,.11.61c0,.23,0,.52,0,.86a5.69,5.69,0,0,1-.05.86,2.63,2.63,0,0,1-.17.66,1.09,1.09,0,0,1-.27.42.56.56,0,0,1-.39.15,2.65,2.65,0,0,1-1.22-.54c-.55-.35-1.24-.75-2.07-1.18a17.11,17.11,0,0,0-3-1.2,13.47,13.47,0,0,0-3.92-.53,11.11,11.11,0,0,0-3.78.59,7.65,7.65,0,0,0-2.67,1.59,6.4,6.4,0,0,0-1.59,2.36,7.69,7.69,0,0,0-.54,2.86,7.13,7.13,0,0,0,1,3.78,9.92,9.92,0,0,0,2.53,2.78,19.73,19.73,0,0,0,3.57,2.18c1.33.65,2.68,1.3,4.07,1.94s2.73,1.35,4.06,2.09A17.57,17.57,0,0,1,325,553.1a11.89,11.89,0,0,1,2.53,3.56A11.16,11.16,0,0,1,328.44,561.47Z"/><path class="cls-1" d="M361.63,573.56a.81.81,0,0,1-.11.41.74.74,0,0,1-.37.29,3.52,3.52,0,0,1-.67.18,6.49,6.49,0,0,1-1.09.08,6.36,6.36,0,0,1-1.06-.08,3.5,3.5,0,0,1-.7-.18.72.72,0,0,1-.47-.7V527.62a.64.64,0,0,1,.13-.4.75.75,0,0,1,.4-.3,3.77,3.77,0,0,1,.69-.18,5.91,5.91,0,0,1,1-.08,6.49,6.49,0,0,1,1.09.08,3.52,3.52,0,0,1,.67.18.71.71,0,0,1,.37.3.77.77,0,0,1,.11.4Z"/><path class="cls-1" d="M429.08,549.9a33.69,33.69,0,0,1-1.51,10.53,20,20,0,0,1-4.43,7.64,18.76,18.76,0,0,1-7.24,4.65,29.92,29.92,0,0,1-10.27,1.58h-9.35a2.33,2.33,0,0,1-1.35-.5,2.06,2.06,0,0,1-.7-1.81v-42.8a2.06,2.06,0,0,1,.7-1.81,2.31,2.31,0,0,1,1.35-.49h10a28,28,0,0,1,10.2,1.64,18.77,18.77,0,0,1,7,4.67,19.87,19.87,0,0,1,4.23,7.26A29.18,29.18,0,0,1,429.08,549.9Zm-4.8.22a26.85,26.85,0,0,0-1-7.68,16.43,16.43,0,0,0-3.22-6.1,14.84,14.84,0,0,0-5.52-4,21.35,21.35,0,0,0-8.5-1.45H398.7V570.3H406a24.77,24.77,0,0,0,8.19-1.19,13.28,13.28,0,0,0,5.58-3.68,16,16,0,0,0,3.36-6.28A32.37,32.37,0,0,0,424.28,550.12Z"/><path class="cls-1" d="M484,572.32a4.19,4.19,0,0,1-.07.84,2.06,2.06,0,0,1-.24.62,1.12,1.12,0,0,1-.39.39,1,1,0,0,1-.47.13H460.58a2.33,2.33,0,0,1-1.35-.5,2.06,2.06,0,0,1-.7-1.81v-42.8a2.06,2.06,0,0,1,.7-1.81,2.31,2.31,0,0,1,1.35-.49h21.88a.94.94,0,0,1,.47.12,1.07,1.07,0,0,1,.37.39,2,2,0,0,1,.22.64,4.77,4.77,0,0,1,.07.9,4.25,4.25,0,0,1-.07.84,1.81,1.81,0,0,1-.22.61,1.06,1.06,0,0,1-.37.36.85.85,0,0,1-.47.13H463v16.67h16.78a.92.92,0,0,1,.51.13,1.06,1.06,0,0,1,.37.36,1.93,1.93,0,0,1,.22.63,4.62,4.62,0,0,1,.08.9,3.93,3.93,0,0,1-.08.82,1.66,1.66,0,0,1-.22.57,1,1,0,0,1-.37.33,1.13,1.13,0,0,1-.51.11H463v18.9h19.79a1,1,0,0,1,.47.13,1.24,1.24,0,0,1,.39.37,1.78,1.78,0,0,1,.24.62A4.84,4.84,0,0,1,484,572.32Z"/><path class="cls-1" d="M548,572.13a2.75,2.75,0,0,1-.2,1.11,2.23,2.23,0,0,1-.51.71,1.78,1.78,0,0,1-.7.38,2.38,2.38,0,0,1-.72.11H545a4.72,4.72,0,0,1-1.34-.18,3.39,3.39,0,0,1-1.17-.64,6.56,6.56,0,0,1-1.14-1.23,19.46,19.46,0,0,1-1.26-2l-16.71-29.6c-.83-1.44-1.66-2.93-2.51-4.45s-1.64-3-2.4-4.46h0c0,1.79,0,3.62,0,5.48v36.18a.8.8,0,0,1-.1.41.79.79,0,0,1-.37.29,3.44,3.44,0,0,1-.68.18,7.2,7.2,0,0,1-2.14,0,3.32,3.32,0,0,1-.7-.18.79.79,0,0,1-.37-.29.81.81,0,0,1-.11-.41V529.19a2.09,2.09,0,0,1,.7-1.81,2.34,2.34,0,0,1,1.35-.49h1.84a6.06,6.06,0,0,1,1.46.14,3,3,0,0,1,1.07.5,4.49,4.49,0,0,1,.93,1,16.13,16.13,0,0,1,1,1.63l12.78,22.68q1.21,2.11,2.29,4.08c.73,1.31,1.43,2.59,2.11,3.85s1.36,2.5,2,3.72,1.34,2.45,2,3.7h0q0-3.07,0-6.42v-34a.84.84,0,0,1,.11-.41.9.9,0,0,1,.37-.31,1.85,1.85,0,0,1,.68-.18,7.9,7.9,0,0,1,1.08-.06,7.57,7.57,0,0,1,1,.06,2,2,0,0,1,.7.18,1,1,0,0,1,.38.31.69.69,0,0,1,.13.41Z"/><path class="cls-1" d="M611.64,567.85a5.44,5.44,0,0,1,0,.73,3.1,3.1,0,0,1-.11.59,1.8,1.8,0,0,1-.2.47,2.56,2.56,0,0,1-.48.57,12.21,12.21,0,0,1-1.51,1.14,20.27,20.27,0,0,1-2.95,1.56,24.62,24.62,0,0,1-4.09,1.31,21.82,21.82,0,0,1-5.09.55,20.49,20.49,0,0,1-8.1-1.55,16.58,16.58,0,0,1-6.17-4.56,20.94,20.94,0,0,1-3.92-7.41,33.52,33.52,0,0,1-1.38-10,34,34,0,0,1,1.47-10.38,23.12,23.12,0,0,1,4.12-7.81,17.86,17.86,0,0,1,6.38-4.91,19.6,19.6,0,0,1,8.22-1.7,20.64,20.64,0,0,1,4.12.4,24.23,24.23,0,0,1,3.68,1,17,17,0,0,1,3,1.43,10.07,10.07,0,0,1,1.83,1.3,4.41,4.41,0,0,1,.62.71,1.69,1.69,0,0,1,.2.5,3.45,3.45,0,0,1,.11.62,6.31,6.31,0,0,1,0,.79,7.53,7.53,0,0,1,0,.89,2.24,2.24,0,0,1-.19.66,1,1,0,0,1-.31.42.67.67,0,0,1-.44.15,2.73,2.73,0,0,1-1.44-.75,22.47,22.47,0,0,0-2.46-1.66,19.16,19.16,0,0,0-3.72-1.67,16.3,16.3,0,0,0-5.24-.75,14,14,0,0,0-6.12,1.33,13.35,13.35,0,0,0-4.78,3.94,19.35,19.35,0,0,0-3.11,6.41,34.75,34.75,0,0,0-.09,17.15,17.94,17.94,0,0,0,3,6.18,12.83,12.83,0,0,0,4.8,3.82,15.33,15.33,0,0,0,6.49,1.32,16.17,16.17,0,0,0,5.18-.75,21.27,21.27,0,0,0,3.8-1.67,28.91,28.91,0,0,0,2.58-1.66,3.05,3.05,0,0,1,1.55-.75.7.7,0,0,1,.37.09.62.62,0,0,1,.24.33,3.2,3.2,0,0,1,.15.64A9,9,0,0,1,611.64,567.85Z"/><path class="cls-1" d="M644,573.56a.81.81,0,0,1-.11.41.72.72,0,0,1-.36.29,3.44,3.44,0,0,1-.68.18,6.28,6.28,0,0,1-1.08.08,6.49,6.49,0,0,1-1.07-.08,3.38,3.38,0,0,1-.69-.18.74.74,0,0,1-.37-.29.81.81,0,0,1-.11-.41V527.62a.71.71,0,0,1,.13-.4.79.79,0,0,1,.4-.3,4.15,4.15,0,0,1,.7-.18,5.82,5.82,0,0,1,1-.08,6.28,6.28,0,0,1,1.08.08,3.44,3.44,0,0,1,.68.18.68.68,0,0,1,.36.3.77.77,0,0,1,.11.4Z"/><path class="cls-1" d="M710.27,572.79a2.23,2.23,0,0,1,.2.9.65.65,0,0,1-.26.53,1.48,1.48,0,0,1-.73.24,10.82,10.82,0,0,1-1.26.06,9.92,9.92,0,0,1-1.23-.06,3,3,0,0,1-.71-.16,1,1,0,0,1-.39-.3,3.49,3.49,0,0,1-.24-.44l-4.54-12.64H680.3l-4.36,12.57a1.21,1.21,0,0,1-.22.44,1.16,1.16,0,0,1-.4.31,2.52,2.52,0,0,1-.72.2,7.2,7.2,0,0,1-1.15.08,9,9,0,0,1-1.28-.08,1.59,1.59,0,0,1-.75-.25.65.65,0,0,1-.26-.52,2.18,2.18,0,0,1,.2-.88l16.6-45.1a1.18,1.18,0,0,1,.33-.49,1.3,1.3,0,0,1,.57-.31,4.13,4.13,0,0,1,.84-.17,9.35,9.35,0,0,1,1.12-.06,9.64,9.64,0,0,1,1.15.06,4.13,4.13,0,0,1,.84.17,1.17,1.17,0,0,1,.55.31,1.25,1.25,0,0,1,.31.49Zm-19.67-41.1h0l-8.94,25.5h18.13Z"/><path class="cls-1" d="M761.42,572.25a5.27,5.27,0,0,1-.07.87,2.19,2.19,0,0,1-.23.64.91.91,0,0,1-.36.41,1.07,1.07,0,0,1-.51.13H739.69a2.33,2.33,0,0,1-1.35-.5,2.06,2.06,0,0,1-.7-1.81V527.62a.77.77,0,0,1,.11-.4.72.72,0,0,1,.36-.3,3.69,3.69,0,0,1,.7-.18,7.26,7.26,0,0,1,2.15,0,3.32,3.32,0,0,1,.67.18.71.71,0,0,1,.37.3.77.77,0,0,1,.11.4v42.61h18.14a1,1,0,0,1,.51.13.89.89,0,0,1,.36.36,1.85,1.85,0,0,1,.23.63A5.67,5.67,0,0,1,761.42,572.25Z"/></g></g></svg>